# xmcd
# 
# Track frame offsets:
#     150
#     36460
#     44697
#     70245
#     85032
#     111937
#     135580
# 
# Disc length: 2042
# 
# Revision: 1
# Processed by: cddbd v1.5.2PL0 Copyright (c) Steve Scherf et al.
# Submitted via: BonkEnc v1.0.8
# 
DISCID=6107f807
DTITLE=Richie Beirach , Frank Tusa, Jeff Williams - Methuselah
DYEAR=1975
DGENRE=Contemporary Jazz
TTITLE0=Eucalyptus
TTITLE1=Off The Top
TTITLE2=Methuselah
TTITLE3=No Boy
TTITLE4=Tomorrow's Expectations
TTITLE5=Tokyo
TTITLE6=Liege
EXTD=
EXTT0=
EXTT1=
EXTT2=
EXTT3=
EXTT4=
EXTT5=
EXTT6=
PLAYORDER=
